<svg width="1319" height="397" viewBox="0 0 1319 397" fill="none" xmlns="http://www.w3.org/2000/svg">
<path d="M183 15C183 6.71573 189.716 0 198 0H237.5C245.784 0 252.5 6.71573 252.5 15V54.5C252.5 62.7843 245.784 69.5 237.5 69.5H198C189.716 69.5 183 62.7843 183 54.5V15Z" fill="#303030"/>
<path d="M183 92.5C183 84.2157 189.716 77.5 198 77.5H237.5C245.784 77.5 252.5 84.2157 252.5 92.5V132C252.5 140.284 245.784 147 237.5 147H198C189.716 147 183 140.284 183 132V92.5Z" fill="#303030"/>
<path d="M338 92.5C338 84.2157 344.716 77.5 353 77.5H392.5C400.784 77.5 407.5 84.2157 407.5 92.5V132C407.5 140.284 400.784 147 392.5 147H353C344.716 147 338 140.284 338 132V92.5Z" fill="#303030"/>
<path d="M415.5 92.5C415.5 84.2157 422.216 77.5 430.5 77.5H470C478.284 77.5 485 84.2157 485 92.5V132C485 140.284 478.284 147 470 147H430.5C422.216 147 415.5 140.284 415.5 132V92.5Z" fill="#303030"/>
<path d="M338 170C338 161.716 344.716 155 353 155H392.5C400.784 155 407.5 161.716 407.5 170V209.5C407.5 217.784 400.784 224.5 392.5 224.5H353C344.716 224.5 338 217.784 338 209.5V170Z" fill="#303030"/>
<path d="M260.5 247.5C260.5 239.216 267.216 232.5 275.5 232.5H315C323.284 232.5 330 239.216 330 247.5V287C330 295.284 323.284 302 315 302H275.5C267.216 302 260.5 295.284 260.5 287V247.5Z" fill="#303030"/>
<path d="M338 247.5C338 239.216 344.716 232.5 353 232.5H392.5C400.784 232.5 407.5 239.216 407.5 247.5V287C407.5 295.284 400.784 302 392.5 302H353C344.716 302 338 295.284 338 287V247.5Z" fill="#303030"/>
<path d="M260.5 15C260.5 6.71573 267.216 0 275.5 0H315C323.284 0 330 6.71573 330 15V54.5C330 62.7843 323.284 69.5 315 69.5H275.5C267.216 69.5 260.5 62.7843 260.5 54.5V15Z" fill="#93E3E9"/>
<path d="M338 15C338 6.71573 344.716 0 353 0H392.5C400.784 0 407.5 6.71573 407.5 15V54.5C407.5 62.7843 400.784 69.5 392.5 69.5H353C344.716 69.5 338 62.7843 338 54.5V15Z" fill="#4A7477"/>
<path d="M415.5 15C415.5 6.71573 422.216 0 430.5 0H470C478.284 0 485 6.71573 485 15V54.5C485 62.7843 478.284 69.5 470 69.5H430.5C422.216 69.5 415.5 62.7843 415.5 54.5V15Z" fill="#93E3E9"/>
<path d="M260.5 92.75C260.5 84.4657 267.216 77.75 275.5 77.75H315C323.284 77.75 330 84.4657 330 92.75V132.25C330 140.534 323.284 147.25 315 147.25H275.5C267.216 147.25 260.5 140.534 260.5 132.25V92.75Z" fill="#93E3E9"/>
<path d="M183 170.5C183 162.216 189.716 155.5 198 155.5H237.5C245.784 155.5 252.5 162.216 252.5 170.5V210C252.5 218.284 245.784 225 237.5 225H198C189.716 225 183 218.284 183 210V170.5Z" fill="#4A7477"/>
<path d="M260.5 170.5C260.5 162.216 267.216 155.5 275.5 155.5H315C323.284 155.5 330 162.216 330 170.5V210C330 218.284 323.284 225 315 225H275.5C267.216 225 260.5 218.284 260.5 210V170.5Z" fill="#67A3A8"/>
<path d="M415.5 170.5C415.5 162.216 422.216 155.5 430.5 155.5H470C478.284 155.5 485 162.216 485 170.5V210C485 218.284 478.284 225 470 225H430.5C422.216 225 415.5 218.284 415.5 210V170.5Z" fill="#93E3E9"/>
<path d="M183 248.25C183 239.966 189.716 233.25 198 233.25H237.5C245.784 233.25 252.5 239.966 252.5 248.25V287.75C252.5 296.034 245.784 302.75 237.5 302.75H198C189.716 302.75 183 296.034 183 287.75V248.25Z" fill="#93E3E9"/>
<path d="M415.5 248.25C415.5 239.966 422.216 233.25 430.5 233.25H470C478.284 233.25 485 239.966 485 248.25V287.75C485 296.034 478.284 302.75 470 302.75H430.5C422.216 302.75 415.5 296.034 415.5 287.75V248.25Z" fill="#93E3E9"/>
<path d="M0 0H85.2L158 183.843V302H126.8L0 0Z" fill="#93E3E9"/>
<path d="M612.763 180.825L528.456 85.6916H624.112L659.781 128.603L696.26 85.6916H791.917L705.582 180.825L809.751 293.366H712.473L659.375 231.832L605.873 293.366H509L612.763 180.825Z" fill="#93E3E9"/>
<path d="M974.287 159.369C971.855 149.114 966.856 140.882 959.29 134.675C951.724 128.468 942.537 125.364 931.728 125.364C920.379 125.364 911.057 128.333 903.761 134.27C896.735 140.208 892.277 148.574 890.385 159.369H974.287ZM888.358 201.876C888.358 233.452 903.22 249.24 932.944 249.24C948.887 249.24 960.912 242.763 969.018 229.808H1039.95C1025.63 277.308 989.825 301.057 932.539 301.057C914.975 301.057 898.897 298.493 884.305 293.366C869.713 287.968 857.148 280.411 846.61 270.695C836.342 260.98 828.37 249.375 822.696 235.881C817.021 222.387 814.184 207.273 814.184 190.541C814.184 173.268 816.886 157.75 822.291 143.986C827.695 129.952 835.396 118.077 845.394 108.362C855.392 98.6459 867.417 91.2242 881.468 86.0964C895.789 80.6988 911.867 78 929.702 78C947.266 78 963.073 80.6988 977.125 86.0964C991.176 91.2242 1003.07 98.7809 1012.79 108.766C1022.52 118.752 1029.95 131.032 1035.09 145.605C1040.22 159.909 1042.79 176.102 1042.79 194.184V201.876H888.358Z" fill="#93E3E9"/>
<path d="M1152.82 188.921C1152.82 195.668 1154.03 202.011 1156.46 207.948C1158.9 213.615 1162.14 218.608 1166.19 222.926C1170.52 227.244 1175.52 230.618 1181.19 233.047C1187.13 235.476 1193.48 236.69 1200.24 236.69C1206.72 236.69 1212.8 235.476 1218.48 233.047C1224.42 230.618 1229.42 227.244 1233.48 222.926C1237.8 218.608 1241.18 213.615 1243.61 207.948C1246.31 202.011 1247.66 195.803 1247.66 189.326C1247.66 182.849 1246.31 176.777 1243.61 171.109C1241.18 165.442 1237.8 160.449 1233.48 156.131C1229.42 151.813 1224.42 148.439 1218.48 146.01C1212.8 143.581 1206.72 142.367 1200.24 142.367C1193.75 142.367 1187.54 143.581 1181.59 146.01C1175.92 148.439 1170.92 151.813 1166.6 156.131C1162.54 160.449 1159.17 165.442 1156.46 171.109C1154.03 176.507 1152.82 182.444 1152.82 188.921ZM1245.23 397V273.124C1228.21 290.937 1206.72 299.843 1180.78 299.843C1165.92 299.843 1152.14 297.009 1139.44 291.341C1126.74 285.674 1115.66 277.847 1106.2 267.862C1097.02 257.876 1089.72 246.271 1084.32 233.047C1079.18 219.553 1076.62 205.249 1076.62 190.136C1076.62 174.483 1079.32 159.909 1084.72 146.415C1090.13 132.921 1097.56 121.181 1107.02 111.195C1116.47 101.21 1127.55 93.3832 1140.25 87.7157C1152.95 82.0482 1166.73 79.2144 1181.59 79.2144C1208.35 79.2144 1229.56 89.0651 1245.23 108.766V85.6916H1319V397H1245.23Z" fill="#93E3E9"/>
</svg>
