<svg xmlns="http://www.w3.org/2000/svg" viewBox="0 0 302 302" fill="none">
  <rect width="302" height="302" rx="52" fill="#07080f"/>
  <!-- background cells (dim) -->
  <rect x="0"     y="0"     width="69.5" height="69.5" rx="15" fill="#303030"/>
  <rect x="77.5"  y="0"     width="69.5" height="69.5" rx="15" fill="#303030"/>
  <rect x="155"   y="0"     width="69.5" height="69.5" rx="15" fill="#303030"/>
  <rect x="232.5" y="0"     width="69.5" height="69.5" rx="15" fill="#303030"/>
  <rect x="0"     y="77.5"  width="69.5" height="69.5" rx="15" fill="#303030"/>
  <rect x="77.5"  y="77.5"  width="69.5" height="69.5" rx="15" fill="#303030"/>
  <rect x="155"   y="77.5"  width="69.5" height="69.5" rx="15" fill="#303030"/>
  <rect x="232.5" y="77.5"  width="69.5" height="69.5" rx="15" fill="#303030"/>
  <rect x="0"     y="155"   width="69.5" height="69.5" rx="15" fill="#303030"/>
  <rect x="77.5"  y="155"   width="69.5" height="69.5" rx="15" fill="#303030"/>
  <rect x="155"   y="155"   width="69.5" height="69.5" rx="15" fill="#303030"/>
  <rect x="232.5" y="155"   width="69.5" height="69.5" rx="15" fill="#303030"/>
  <rect x="0"     y="232.5" width="69.5" height="69.5" rx="15" fill="#303030"/>
  <rect x="77.5"  y="232.5" width="69.5" height="69.5" rx="15" fill="#303030"/>
  <rect x="155"   y="232.5" width="69.5" height="69.5" rx="15" fill="#303030"/>
  <rect x="232.5" y="232.5" width="69.5" height="69.5" rx="15" fill="#303030"/>
  <!-- lit cells -->
  <rect x="78"  y="0"   width="69" height="69" rx="15" fill="#93E3E9"/>
  <rect x="155" y="0"   width="69" height="69" rx="15" fill="#4A7477"/>
  <rect x="233" y="0"   width="69" height="69" rx="15" fill="#93E3E9"/>
  <rect x="78"  y="78"  width="69" height="69" rx="15" fill="#93E3E9"/>
  <rect x="1"   y="155" width="69" height="69" rx="15" fill="#4A7477"/>
  <rect x="78"  y="156" width="69" height="69" rx="15" fill="#67A3A8"/>
  <rect x="233" y="155" width="69" height="69" rx="15" fill="#93E3E9"/>
  <rect x="0"   y="233" width="69" height="69" rx="15" fill="#93E3E9"/>
  <rect x="233" y="233" width="69" height="69" rx="15" fill="#93E3E9"/>
</svg>
